<svg width="16" height="16" viewBox="0 0 16 16" fill="none" xmlns="http://www.w3.org/2000/svg">
<path d="M3.10035 3.96777C2.86088 3.7283 2.86087 3.34005 3.10034 3.10057C3.3398 2.8611 3.72806 2.86109 3.96753 3.10056L12.8998 12.0325C13.1393 12.272 13.1393 12.6602 12.8998 12.8997C12.6604 13.1392 12.2721 13.1392 12.0326 12.8997L3.10035 3.96777Z" fill="#545454" stroke="#545454" stroke-width="0.5"/>
<path d="M3.1006 12.8999C2.86112 12.6604 2.86112 12.2722 3.10058 12.0327L12.0325 3.10043C12.272 2.86095 12.6603 2.86095 12.8997 3.10041C13.1392 3.33988 13.1392 3.72814 12.8998 3.96761L3.96779 12.8999C3.72833 13.1394 3.34007 13.1394 3.1006 12.8999Z" fill="#545454" stroke="#545454" stroke-width="0.5"/>
</svg>
